<svg xmlns="http://www.w3.org/2000/svg" width="200" height="200" class="icon" version="1.1" viewBox="0 0 1024 1024"><path fill="#FF822B" d="M512 512m-512 0a512 512 0 1 0 1024 0 512 512 0 1 0-1024 0Z"/><path fill="#FFF" fill-opacity=".2" d="M324.408781 655.018925C505.290126 655.018925 651.918244 508.387706 651.918244 327.509463c0-152.138029-103.733293-280.047334-244.329811-316.853972C205.813923 52.463528 47.497011 213.017581 8.987325 415.981977 47.587706 553.880127 174.183098 655.018925 324.408781 655.018925z"/><path fill="#FFF" fill-opacity=".15" d="M512 1024c282.766631 0 512-229.233369 512-512 0-31.765705-2.891385-62.853911-8.433853-93.018889C928.057169 336.0999 809.874701 285.26268 679.824375 285.26268c-269.711213 0-488.357305 218.645317-488.357305 488.357305 0 54.959576 9.084221 107.802937 25.822474 157.10377C300.626556 989.489417 402.283167 1024 512 1024z"/><path fill="#FFF" fill-opacity=".5" d="M732.535958 756.566238c36.389596 0 65.889478-29.499882 65.889477-65.889478 0 36.389596 29.502983 65.889478 65.889478 65.889478-17.053747 0-65.889478 29.502983-65.889478 65.889477 0-36.386495-29.499882-65.889478-65.889477-65.889477zM159.685087 247.279334c25.686819 0 46.51022-20.8234 46.51022-46.51022 0 25.686819 20.8234 46.51022 46.510219 46.51022-12.03607 0-46.51022 20.8234-46.510219 46.510219 0-25.686819-20.8234-46.51022-46.51022-46.510219z"/><path fill="#FFF" fill-opacity=".3" d="M206.195307 333.32324c8.562531 0 15.503407-6.940875 15.503406-15.503407 0 8.562531 6.940875 15.503407 15.503407 15.503407-4.012282 0-15.503407 6.940875-15.503407 15.503406 0-8.562531-6.940875-15.503407-15.503406-15.503406z"/><path fill="#FFF" d="M304.641938 257.356548m69.765329 0l275.185466 0q69.765329 0 69.765329 69.765329l0 369.756246q0 69.765329-69.765329 69.765329l-275.185466 0q-69.765329 0-69.765329-69.765329l0-369.756246q0-69.765329 69.765329-69.765329Z"/><path fill="#FF954B" d="M365.105223 341.074943m21.317184 0l153.483725 0q21.317184 0 21.317184 21.317184l0 0q0 21.317184-21.317184 21.317184l-153.483725 0q-21.317184 0-21.317184-21.317184l0 0q0-21.317184 21.317184-21.317184Z"/><path fill="#FF954B" d="M365.105223 437.971234m21.317184 0l250.380015 0q21.317184 0 21.317184 21.317184l0 0q0 21.317184-21.317184 21.317184l-250.380015 0q-21.317184 0-21.317184-21.317184l0 0q0-21.317184 21.317184-21.317184Z"/><path fill="#FF954B" d="M365.105223 534.867525m21.317184 0l250.380015 0q21.317184 0 21.317184 21.317184l0 0q0 21.317184-21.317184 21.317184l-250.380015 0q-21.317184 0-21.317184-21.317184l0 0q0-21.317184 21.317184-21.317184Z"/><path fill="#FF954B" d="M365.880394 631.763815m21.317184 0l250.380015 0q21.317184 0 21.317184 21.317184l0 0q0 21.317184-21.317184 21.317184l-250.380015 0q-21.317184 0-21.317184-21.317184l0 0q0-21.317184 21.317184-21.317184Z"/></svg>